<svg version="1.1" id="Uploaded to svgrepo.com" xmlns="http://www.w3.org/2000/svg" xmlns:xlink="http://www.w3.org/1999/xlink" x="0px" y="0px"
	 width="32px" height="32px" viewBox="0 0 32 32" style="enable-background:new 0 0 32 32;" xml:space="preserve">
<style type="text/css">
	.linesandangles_een{fill:#FFFFFF;}
</style>
<path class="linesandangles_een" d="M21,1.586L2.586,20L12,29.414L30.414,11L21,1.586z M5.414,20L21,4.414L27.586,11L26.5,12.086
	l-1.793-1.793l-1.414,1.414l1.793,1.793L23.5,15.086l-3.793-3.793l-1.414,1.414l3.793,3.793L20.5,18.086l-1.793-1.793l-1.414,1.414
	l1.793,1.793L17.5,21.086l-1.793-1.793l-1.414,1.414l1.793,1.793L14.5,24.086l-3.793-3.793l-1.414,1.414l3.793,3.793L12,26.586
	L5.414,20z"/>
</svg>